<svg xmlns="http://www.w3.org/2000/svg" viewBox="0 0 512 512" role="img" aria-labelledby="title desc">
<title id="title">AnimGraphMigration — 1.29 / 1.30</title>
<desc id="desc">Tall Art Nouveau numerals 1.29 and 1.30 interweave in gold and ivory. Their elongated strokes cross over and under one another to form one ligature.</desc>
<path fill="#102b26" d="M68 0h376a68 68 0 0 1 68 68v376a68 68 0 0 1-68 68H68a68 68 0 0 1-68-68V68A68 68 0 0 1 68 0Z"/>
<g fill="none" stroke="#d4b97f" stroke-width="7.5" stroke-linecap="butt" stroke-linejoin="miter">
<path fill="#d4b97f" stroke="none" d="M75.152 117.085L76.24 117.062L77.349 117.062L78.447 117.033L79.533 116.975L80.609 116.886L81.673 116.769L82.726 116.621L83.768 116.444L84.798 116.238L85.817 116.003L86.822 115.74L87.816 115.448L88.796 115.128L89.763 114.781L90.716 114.407L91.655 114.008L92.579 113.583L93.489 113.134L94.384 112.661L95.264 112.166L96.129 111.649L96.978 111.111L97.812 110.554L98.631 109.977L99.435 109.383L100.223 108.772L100.996 108.144L101.755 107.502L102.499 106.846L103.228 106.176L103.944 105.495L104.646 104.802L105.334 104.099L106.009 103.386L106.671 102.664L107.32 101.935L107.958 101.198L108.583 100.456L109.197 99.707L109.8 98.954L110.393 98.197L110.974 97.437L111.546 96.674L112.108 95.909L112.661 95.143L113.205 94.376L113.74 93.61L109.228 91.426L104.203 333.106L104.338 336.229L104.728 339.314L105.376 342.247L106.274 345.014L107.412 347.599L108.772 349.989L110.331 352.17L112.064 354.137L113.943 355.887L115.94 357.426L118.032 358.762L120.199 359.907L122.424 360.874L124.695 361.677L127.001 362.326L129.334 362.833L131.686 363.206L134.053 363.452L136.426 363.578L138.8 363.588L141.168 363.521L143.535 363.532L145.909 363.586L148.287 363.527L150.659 363.358L153.016 363.081L155.349 362.698L157.652 362.212L159.915 361.623L162.131 360.933L164.294 360.141L166.396 359.245L168.43 358.243L170.389 357.13L172.263 355.899L174.042 354.542L175.71 353.047L177.248 351.402L178.627 349.599L179.814 347.631L180.77 345.504L181.454 343.234L181.831 340.852L181.877 338.398L181.586 335.914L180.964 333.439L180.031 330.999L178.99 328.79L169.01 333.21L169.722 334.959L170.061 336.387L170.25 337.688L170.327 338.882L170.317 340.002L170.233 341.086L170.071 342.169L169.815 343.276L169.443 344.42L168.935 345.599L168.276 346.805L167.458 348.021L166.479 349.231L165.345 350.42L164.062 351.574L162.641 352.681L161.094 353.731L159.431 354.716L157.667 355.629L155.811 356.467L153.877 357.223L151.876 357.895L149.817 358.479L147.713 358.973L145.573 359.374L143.407 359.68L141.23 359.73L139.07 359.483L136.951 359.091L134.885 358.587L132.884 357.969L130.963 357.241L129.132 356.403L127.405 355.46L125.791 354.417L124.301 353.28L122.94 352.059L121.711 350.76L120.612 349.391L119.64 347.956L118.785 346.453L118.041 344.878L117.399 343.218L116.856 341.456L116.413 339.573L116.08 337.547L115.868 335.36L115.797 332.894L110.772 88.574L105.255 87.89L104.774 88.622L104.29 89.352L103.803 90.079L103.312 90.802L102.819 91.521L102.321 92.235L101.82 92.944L101.315 93.648L100.806 94.346L100.292 95.037L99.774 95.721L99.25 96.399L98.722 97.068L98.189 97.73L97.651 98.383L97.107 99.028L96.557 99.663L96.001 100.29L95.438 100.906L94.869 101.513L94.293 102.11L93.71 102.697L93.119 103.273L92.52 103.838L91.912 104.392L91.295 104.935L90.668 105.467L90.03 105.987L89.382 106.495L88.722 106.991L88.049 107.474L87.363 107.944L86.663 108.4L85.947 108.843L85.216 109.271L84.467 109.684L83.701 110.081L82.916 110.461L82.111 110.824L81.286 111.168L80.44 111.493L79.572 111.797L78.681 112.08L77.767 112.339L76.829 112.575L75.867 112.785L74.848 112.915Z"/>
<path fill="#d4b97f" stroke="none" d="M184.77 111.45L184.852 110.027L184.982 108.89L185.174 107.787L185.43 106.706L185.756 105.636L186.16 104.569L186.649 103.502L187.233 102.438L187.917 101.378L188.703 100.33L189.594 99.299L190.589 98.293L191.684 97.318L192.875 96.379L194.157 95.483L195.525 94.633L196.972 93.832L198.492 93.084L200.079 92.391L201.726 91.754L203.427 91.175L205.177 90.654L206.969 90.193L208.797 89.793L210.656 89.453L212.541 89.173L214.446 88.955L216.364 88.866L218.284 88.966L220.193 89.189L222.085 89.473L223.955 89.821L225.797 90.23L227.605 90.703L229.374 91.237L231.098 91.833L232.771 92.49L234.386 93.207L235.938 93.982L237.421 94.814L238.828 95.699L240.154 96.636L241.394 97.619L242.543 98.646L243.598 99.71L244.557 100.808L245.418 101.933L246.245 103.112L247.281 104.627L248.137 106.124L248.875 107.622L249.506 109.124L250.04 110.633L250.485 112.157L250.848 113.703L251.131 115.277L251.337 116.887L251.467 118.538L251.519 120.235L251.493 121.979L251.386 123.774L251.197 125.618L250.926 127.512L250.572 129.454L250.134 131.442L249.613 133.474L249.01 135.548L248.328 137.661L247.566 139.811L246.728 141.995L245.817 144.211L244.834 146.457L243.782 148.731L242.664 151.031L241.484 153.354L240.244 155.7L238.948 158.066L237.598 160.451L236.199 162.853L234.752 165.271L233.261 167.703L231.73 170.148L230.162 172.606L228.559 175.073L226.926 177.55L225.265 180.035L223.58 182.527L221.873 185.025L220.149 187.527L218.41 190.033L216.659 192.542L214.899 195.052L213.135 197.563L211.368 200.073L209.602 202.582L207.802 205.112L182.88 247.469L254.981 249.84L258.557 250.031L262 250.405L265.325 250.916L268.529 251.56L271.61 252.331L274.566 253.223L277.395 254.231L280.097 255.348L282.67 256.569L285.114 257.887L287.427 259.295L289.612 260.789L291.667 262.363L293.594 264.009L295.396 265.724L297.072 267.503L298.626 269.34L300.06 271.233L301.376 273.177L302.575 275.171L303.662 277.213L304.636 279.3L305.499 281.432L306.253 283.609L306.898 285.829L307.433 288.093L307.859 290.401L308.173 292.752L308.375 295.148L308.462 297.586L308.431 300.067L308.28 302.59L308.005 305.153L307.603 307.756L307.071 310.396L306.404 313.071L305.6 315.779L304.654 318.516L303.562 321.28L302.323 324.067L300.931 326.874L299.383 329.697L297.678 332.532L295.81 335.375L293.778 338.222L291.579 341.069L289.21 343.911L286.593 346.763L285.382 348.137L284.207 349.437L282.964 350.696L281.659 351.911L280.292 353.081L278.868 354.205L277.39 355.279L275.862 356.304L274.288 357.277L272.671 358.197L271.017 359.063L269.329 359.875L267.611 360.631L265.868 361.332L264.103 361.975L262.321 362.562L260.526 363.092L258.722 363.563L256.912 363.977L255.101 364.334L253.292 364.632L251.49 364.872L249.697 365.022L247.925 364.973L246.187 364.754L244.491 364.471L242.841 364.123L241.244 363.711L239.705 363.236L238.229 362.699L236.823 362.103L235.492 361.449L234.242 360.741L233.079 359.982L232.006 359.179L231.027 358.336L230.146 357.46L229.362 356.557L228.674 355.636L228.077 354.7L227.567 353.755L227.134 352.802L226.769 351.838L226.465 350.859L226.214 349.853L226.013 348.81L225.862 347.715L225.763 346.539L225.756 346.026L225.758 345.488L225.776 344.973L225.808 344.475L225.854 343.99L225.913 343.514L225.986 343.042L226.075 342.57L226.182 342.096L226.31 341.617L226.462 341.131L226.64 340.639L226.847 340.141L227.087 339.636L227.359 339.128L227.667 338.616L228.011 338.103L228.391 337.59L228.808 337.081L229.262 336.576L229.751 336.079L230.276 335.589L230.835 335.11L231.427 334.641L232.05 334.186L232.704 333.744L233.387 333.317L234.097 332.906L234.833 332.51L235.594 332.132L236.378 331.771L237.183 331.428L238.008 331.104L238.852 330.798L239.714 330.51L240.591 330.242L241.483 329.993L242.388 329.763L243.305 329.553L244.233 329.363L245.171 329.192L246.117 329.04L247.07 328.909L248.029 328.797L248.992 328.747L249.956 328.8L250.917 328.912L251.896 329.005L252.104 324.995L251.081 324.983L250.036 325.034L248.993 325.065L247.951 325.035L246.908 324.985L245.864 324.956L244.819 324.948L243.776 324.961L242.734 324.996L241.695 325.052L240.659 325.129L239.628 325.227L238.601 325.346L237.58 325.486L236.565 325.648L235.558 325.831L234.558 326.036L233.566 326.262L232.583 326.511L231.61 326.783L230.647 327.078L229.694 327.397L228.753 327.74L227.823 328.109L226.906 328.504L226.003 328.926L225.114 329.378L224.24 329.86L223.382 330.374L222.543 330.921L221.723 331.505L220.926 332.125L220.153 332.785L219.408 333.486L218.694 334.23L218.016 335.017L217.378 335.848L216.784 336.724L216.239 337.644L215.749 338.606L215.318 339.608L214.95 340.646L214.65 341.718L214.42 342.818L214.262 343.941L214.177 345.085L214.166 346.243L214.237 347.461L214.504 349.467L214.946 351.42L215.556 353.289L216.328 355.062L217.25 356.726L218.308 358.272L219.485 359.696L220.765 360.994L222.132 362.17L223.573 363.226L225.075 364.17L226.629 365.008L228.228 365.748L229.867 366.396L231.541 366.958L233.248 367.44L234.986 367.846L236.751 368.18L238.543 368.443L240.359 368.64L242.197 368.77L244.056 368.836L245.933 368.838L247.825 368.777L249.732 368.758L251.661 368.811L253.614 368.827L255.588 368.774L257.577 368.653L259.579 368.464L261.59 368.207L263.605 367.882L265.621 367.49L267.635 367.03L269.642 366.502L271.64 365.906L273.624 365.242L275.592 364.509L277.539 363.707L279.462 362.835L281.358 361.892L283.222 360.877L285.051 359.789L286.84 358.627L288.586 357.389L290.283 356.073L291.927 354.678L293.407 353.237L296.243 350.315L298.987 347.337L301.563 344.325L303.972 341.284L306.214 338.216L308.288 335.123L310.196 332.009L311.937 328.877L313.51 325.731L314.915 322.573L316.152 319.409L317.221 316.241L318.12 313.075L318.849 309.915L319.407 306.766L319.794 303.632L320.01 300.521L320.054 297.438L319.926 294.388L319.627 291.379L319.159 288.418L318.521 285.512L317.716 282.667L316.747 279.891L315.616 277.191L314.327 274.574L312.883 272.046L311.29 269.613L309.552 267.282L307.674 265.056L305.662 262.942L303.52 260.942L301.255 259.06L298.87 257.299L296.372 255.661L293.763 254.148L291.05 252.762L288.234 251.503L285.32 250.374L282.31 249.374L279.207 248.505L276.012 247.769L272.728 247.165L269.356 246.697L265.896 246.364L262.35 246.169L258.718 246.114L255.019 246.16L187.12 248.531L216.198 210.888L217.907 208.413L219.665 205.909L221.431 203.399L223.2 200.885L224.97 198.369L226.739 195.85L228.502 193.329L230.256 190.809L231.999 188.289L233.728 185.77L235.438 183.253L237.128 180.739L238.794 178.229L240.433 175.724L242.043 173.224L243.619 170.729L245.159 168.241L246.659 165.76L248.118 163.287L249.531 160.821L250.896 158.363L252.209 155.915L253.467 153.474L254.666 151.043L255.805 148.62L256.878 146.206L257.882 143.8L258.814 141.401L259.668 139.011L260.442 136.627L261.129 134.25L261.725 131.879L262.223 129.514L262.618 127.155L262.903 124.803L263.07 122.458L263.111 120.124L263.02 117.803L262.787 115.5L262.406 113.223L261.872 110.977L261.179 108.772L260.325 106.618L259.311 104.522L258.138 102.494L256.809 100.54L255.33 98.664L253.755 96.888L252.365 95.509L250.831 94.212L249.226 93.022L247.559 91.933L245.837 90.94L244.065 90.036L242.249 89.219L240.394 88.483L238.503 87.825L236.58 87.242L234.629 86.731L232.652 86.292L230.653 85.922L228.637 85.62L226.606 85.385L224.564 85.216L222.515 85.114L220.463 85.077L218.413 85.105L216.367 85.139L214.324 85.109L212.28 85.077L210.238 85.11L208.203 85.207L206.179 85.369L204.169 85.595L202.178 85.886L200.209 86.242L198.266 86.663L196.352 87.15L194.47 87.705L192.624 88.33L190.816 89.027L189.05 89.798L187.33 90.648L185.661 91.582L184.048 92.605L182.497 93.722L181.017 94.94L179.619 96.266L178.315 97.705L177.122 99.259L176.056 100.93L175.135 102.715L174.377 104.605L173.797 106.59L173.407 108.655L173.23 110.55Z"/>
<path fill="#d4b97f" stroke="none" d="M376.688 102.185L373.238 98.66L371.348 97.697L369.429 96.784L367.483 95.922L365.513 95.11L363.521 94.348L361.51 93.635L359.482 92.973L357.44 92.361L355.387 91.799L353.324 91.288L351.255 90.827L349.182 90.418L347.108 90.059L345.036 89.753L342.968 89.499L340.907 89.297L338.856 89.149L336.817 89.054L334.795 89.013L332.791 89.027L330.808 89.063L328.845 89.044L326.899 89.003L324.971 89.011L323.062 89.071L321.174 89.182L319.31 89.345L317.47 89.562L315.656 89.833L313.87 90.16L312.113 90.544L310.387 90.989L308.691 91.495L307.03 92.067L305.403 92.709L303.815 93.424L302.267 94.217L300.765 95.094L299.314 96.06L297.92 97.12L296.592 98.279L295.341 99.54L294.177 100.905L293.111 102.375L292.157 103.945L291.324 105.61L290.745 107.148L290.122 108.829L289.5 110.638L288.971 112.442L288.536 114.238L288.195 116.024L287.95 117.797L287.799 119.555L287.745 121.294L287.786 123.011L287.922 124.701L288.153 126.361L288.478 127.987L288.894 129.573L289.401 131.116L289.995 132.61L290.674 134.053L291.434 135.44L292.271 136.767L293.181 138.032L294.16 139.23L295.204 140.361L296.307 141.422L297.465 142.412L298.674 143.33L299.93 144.174L301.227 144.946L302.563 145.644L303.933 146.27L305.334 146.823L306.764 147.304L308.218 147.714L309.696 148.054L311.193 148.325L312.709 148.526L314.242 148.66L315.789 148.727L317.35 148.726L318.924 148.66L320.509 148.597L322.118 148.637L323.762 148.706L325.441 148.701L327.152 148.618L328.893 148.457L330.662 148.215L332.456 147.891L334.272 147.483L336.102 146.986L337.709 146.478L339.26 145.927L340.778 145.348L342.264 144.742L343.717 144.108L345.139 143.449L346.528 142.764L347.885 142.054L349.21 141.32L350.504 140.563L351.765 139.784L352.996 138.984L354.194 138.163L355.362 137.323L356.498 136.465L357.602 135.589L358.676 134.696L359.719 133.788L360.732 132.866L361.714 131.93L362.666 130.982L363.588 130.023L364.481 129.054L365.344 128.075L366.178 127.089L366.984 126.096L367.762 125.098L368.511 124.095L369.234 123.088L369.929 122.079L370.598 121.068L371.24 120.057L371.857 119.047L372.449 118.038L373.016 117.032L373.559 116.03L374.079 115.033L374.575 114.041L375.048 113.056L375.5 112.079L375.929 111.111L376.338 110.152L376.726 109.204L377.093 108.267L377.442 107.343L377.771 106.432L378.081 105.535L367.403 102.105L367.165 102.878L366.914 103.665L366.647 104.464L366.366 105.276L366.068 106.098L365.755 106.93L365.426 107.773L365.081 108.623L364.718 109.482L364.338 110.348L363.941 111.22L363.525 112.098L363.091 112.981L362.639 113.867L362.167 114.758L361.676 115.651L361.165 116.546L360.633 117.443L360.081 118.341L359.508 119.238L358.913 120.135L358.296 121.031L357.656 121.925L356.993 122.816L356.306 123.704L355.596 124.588L354.86 125.468L354.099 126.343L353.312 127.212L352.498 128.074L351.657 128.93L350.788 129.777L349.89 130.616L348.962 131.446L348.004 132.266L347.016 133.075L345.995 133.872L344.942 134.657L343.856 135.428L342.735 136.185L341.58 136.926L340.389 137.652L339.162 138.36L337.898 139.05L336.595 139.721L335.255 140.371L333.898 141.014L332.366 141.692L330.85 142.31L329.344 142.866L327.847 143.36L326.36 143.793L324.884 144.166L323.419 144.48L321.965 144.734L320.526 144.826L319.117 144.686L317.75 144.415L316.429 144.086L315.156 143.701L313.933 143.263L312.759 142.776L311.638 142.242L310.569 141.665L309.553 141.048L308.59 140.393L307.682 139.705L306.827 138.986L306.024 138.239L305.274 137.466L304.576 136.67L303.927 135.854L303.327 135.018L302.774 134.165L302.267 133.295L301.803 132.409L301.381 131.506L301.001 130.587L300.659 129.651L300.357 128.695L300.092 127.72L299.866 126.722L299.678 125.701L299.53 124.653L299.423 123.578L299.358 122.472L299.339 121.335L299.366 120.165L299.445 118.96L299.577 117.721L299.766 116.445L300.016 115.133L300.33 113.785L300.711 112.402L301.255 110.852L301.644 109.575L301.961 108.544L302.332 107.537L302.763 106.546L303.26 105.569L303.83 104.604L304.476 103.653L305.205 102.718L306.018 101.804L306.917 100.914L307.902 100.054L308.972 99.229L310.123 98.442L311.353 97.697L312.658 96.997L314.035 96.345L315.478 95.742L316.984 95.19L318.549 94.691L320.167 94.245L321.835 93.852L323.55 93.514L325.306 93.229L327.101 92.997L328.93 92.82L330.789 92.769L332.668 92.876L334.562 93.063L336.466 93.297L338.379 93.578L340.297 93.905L342.217 94.279L344.138 94.699L346.055 95.165L347.967 95.678L349.87 96.235L351.761 96.838L353.637 97.487L355.495 98.179L357.332 98.916L359.146 99.696L360.932 100.519L362.688 101.385L364.41 102.293L366.096 103.242L367.743 104.231L369.346 105.259L369.312 103.815ZM367.353 104.013L368.377 109.77L369.227 115.488L369.929 121.237L370.485 127.013L370.897 132.808L371.166 138.619L371.293 144.438L371.28 150.26L371.13 156.08L370.843 161.891L370.422 167.689L369.868 173.467L369.183 179.219L368.369 184.939L367.427 190.622L366.36 196.263L365.17 201.854L363.858 207.391L362.427 212.867L360.879 218.278L359.215 223.616L357.437 228.877L355.549 234.055L353.551 239.144L351.447 244.138L349.238 249.032L346.927 253.821L344.515 258.499L342.006 263.06L339.401 267.5L336.703 271.814L333.914 275.995L331.035 280.04L328.07 283.943L325.021 287.699L321.889 291.305L318.675 294.756L315.383 298.047L312.013 301.174L308.566 304.133L305.043 306.921L301.444 309.532L297.77 311.963L294.02 314.209L290.193 316.266L286.288 318.128L282.304 319.789L277.965 321.06L275.929 321.775L274.124 322.566L272.29 323.285L270.433 323.933L268.556 324.51L266.661 325.016L264.754 325.452L262.837 325.818L260.915 326.114L258.991 326.34L257.071 326.387L255.17 326.223L253.298 325.96L251.459 325.631L249.658 325.238L247.897 324.782L246.181 324.264L244.515 323.687L242.902 323.051L241.347 322.36L239.853 321.615L238.425 320.819L237.067 319.974L235.783 319.085L234.577 318.154L233.451 317.186L232.408 316.184L231.451 315.154L230.581 314.1L229.797 313.027L229.099 311.939L228.485 310.839L227.951 309.73L227.494 308.614L227.109 307.489L226.792 306.352L226.539 305.199L226.348 304.023L226.219 302.816L226.155 301.569L226.158 300.273L226.237 298.922L226.4 297.508L226.656 296.027L227.015 294.477L227.487 292.855L228.082 291.163L228.911 289.299L219.089 284.701L218.063 286.8L217.087 288.997L216.266 291.187L215.602 293.37L215.099 295.542L214.759 297.699L214.584 299.835L214.577 301.94L214.736 304.007L215.06 306.024L215.542 307.98L216.177 309.867L216.954 311.674L217.864 313.397L218.894 315.029L220.034 316.569L221.272 318.015L222.598 319.368L224.002 320.63L225.478 321.803L227.018 322.89L228.616 323.895L230.267 324.819L231.967 325.665L233.712 326.436L235.498 327.132L237.322 327.756L239.182 328.308L241.075 328.789L242.997 329.2L244.945 329.541L246.918 329.811L248.911 330.01L250.923 330.139L252.949 330.197L254.986 330.183L257.033 330.129L259.091 330.144L261.169 330.196L263.265 330.173L265.376 330.072L267.499 329.894L269.63 329.635L271.767 329.295L273.905 328.872L276.042 328.364L278.173 327.769L280.035 326.94L284.253 325.603L288.686 324.2L293.055 322.552L297.356 320.664L301.583 318.542L305.731 316.195L309.797 313.627L313.777 310.848L317.666 307.864L321.463 304.683L325.164 301.311L328.768 297.757L332.271 294.028L335.672 290.13L338.969 286.071L342.161 281.857L345.245 277.495L348.22 272.992L351.085 268.354L353.838 263.587L356.477 258.698L359.001 253.692L361.409 248.576L363.699 243.356L365.868 238.038L367.917 232.628L369.842 227.131L371.643 221.553L373.318 215.901L374.864 210.179L376.281 204.395L377.566 198.552L378.717 192.658L379.733 186.717L380.611 180.737L381.351 174.721L381.949 168.676L382.404 162.608L382.714 156.523L382.877 150.425L382.89 144.321L382.752 138.217L382.461 132.119L382.013 126.031L381.408 119.961L380.642 113.914L379.714 107.895L378.647 101.987Z"/>
</g>
<path fill="#d4b97f" d="M149 250a5.5 5.5 0 1 1-11 0 5.5 5.5 0 0 1 11 0Z"/>
<g fill="none" stroke="#102b26" stroke-width="16" stroke-linecap="butt" stroke-linejoin="round">
<path d="M89 283 127 242V433C127 470 241 444 247 394"/><path d="M202 232H283C301 233 294 277 251 310 288 310 302 349 285 382 270 418 242 441 207 443"/><path d="M369 184C331 184 312 254 321 328 330 410 350 445 379 441 411 437 421 372 413 302 405 231 393 184 369 184Z"/>
</g>
<g fill="none" stroke="#f5ebcd" stroke-width="7.5" stroke-linecap="butt" stroke-linejoin="miter">
<path fill="#f5ebcd" stroke="none" d="M92.472 286.218L125.836 243.609L121.211 433.19L121.459 436.004L122.175 438.844L123.354 441.449L124.94 443.748L126.847 445.702L128.986 447.316L131.289 448.625L133.714 449.675L136.244 450.512L138.875 451.17L141.607 451.671L144.443 452.03L147.383 452.258L150.425 452.359L153.565 452.337L156.802 452.324L160.14 452.34L163.575 452.244L167.094 452.009L170.685 451.64L174.334 451.141L178.031 450.514L181.763 449.763L185.519 448.89L189.286 447.899L193.054 446.791L196.812 445.57L200.547 444.237L204.248 442.795L207.906 441.244L211.508 439.588L215.044 437.827L218.503 435.962L221.875 433.994L225.148 431.923L228.312 429.748L231.355 427.469L234.267 425.084L237.036 422.59L239.648 419.983L242.089 417.26L244.344 414.415L246.393 411.445L248.215 408.346L249.786 405.115L251.079 401.755L252.067 398.274L252.668 394.941L241.332 393.059L240.906 395.913L240.328 398.489L239.541 401.054L238.542 403.609L237.328 406.154L235.898 408.682L234.256 411.186L232.408 413.656L230.36 416.084L228.122 418.461L225.707 420.78L223.126 423.033L220.391 425.215L217.517 427.321L214.515 429.345L211.4 431.284L208.185 433.134L204.883 434.892L201.508 436.555L198.071 438.121L194.588 439.586L191.07 440.949L187.53 442.207L183.981 443.36L180.436 444.404L176.907 445.34L173.407 446.164L169.947 446.877L166.54 447.477L163.198 447.963L159.932 448.336L156.753 448.565L153.682 448.504L150.746 448.17L147.969 447.69L145.369 447.063L142.971 446.292L140.798 445.379L138.876 444.338L137.231 443.186L135.881 441.953L134.834 440.68L134.073 439.409L133.553 438.172L133.209 436.969L132.98 435.756L132.834 434.458L132.789 432.81L128.164 240.391L85.528 279.782Z"/><path fill="#f5ebcd" stroke="none" d="M202 220.8L280 220.8L280 217.2L202 217.2Z"/><path fill="#f5ebcd" stroke="none" d="M202 233.8L282.88 234.008L283.685 234.527L284.322 235.115L284.789 235.745L285.109 236.38L285.314 236.994L285.447 237.577L285.547 238.136L285.642 238.691L285.75 239.268L285.873 239.892L286.006 240.584L286.141 241.356L286.265 242.219L286.366 243.174L286.435 244.223L286.463 245.363L286.441 246.592L286.364 247.905L286.227 249.297L286.027 250.764L285.759 252.302L285.423 253.906L285.014 255.571L284.532 257.293L283.975 259.069L283.342 260.893L282.632 262.764L281.843 264.676L280.975 266.626L280.027 268.611L278.998 270.627L277.887 272.671L276.694 274.74L275.418 276.831L274.058 278.939L272.613 281.063L271.083 283.2L269.467 285.345L267.765 287.496L265.975 289.651L264.097 291.805L262.13 293.957L260.074 296.103L257.927 298.24L255.69 300.365L253.36 302.475L250.937 304.568L249.659 309.265L253.192 312.026L255.308 312.351L257.343 312.769L259.298 313.277L261.172 313.869L262.965 314.539L264.678 315.283L266.311 316.097L267.865 316.974L269.344 317.912L270.748 318.905L272.08 319.951L273.342 321.045L274.538 322.185L275.669 323.37L276.737 324.597L277.745 325.864L278.695 327.171L279.588 328.516L280.425 329.899L281.208 331.319L281.936 332.776L282.61 334.268L283.23 335.796L283.796 337.358L284.308 338.953L284.765 340.581L285.167 342.241L285.512 343.93L285.8 345.649L286.03 347.395L286.201 349.167L286.313 350.963L286.364 352.782L286.354 354.622L286.282 356.48L286.146 358.356L285.946 360.246L285.682 362.15L285.351 364.065L284.954 365.989L284.49 367.921L283.957 369.858L283.356 371.797L282.684 373.738L281.941 375.679L281.127 377.616L280.066 379.731L279.042 382.04L278.123 384.159L277.174 386.245L276.196 388.298L275.188 390.316L274.151 392.3L273.085 394.25L271.991 396.165L270.87 398.046L269.72 399.891L268.543 401.7L267.338 403.474L266.107 405.212L264.849 406.914L263.565 408.58L262.254 410.209L260.917 411.801L259.554 413.356L258.165 414.874L256.751 416.354L255.311 417.796L253.846 419.2L252.355 420.566L250.839 421.893L249.298 423.181L247.732 424.43L246.14 425.639L244.523 426.808L242.881 427.936L241.214 429.024L239.521 430.071L237.803 431.075L236.06 432.038L234.291 432.957L232.498 433.834L230.678 434.666L228.833 435.454L226.963 436.196L225.068 436.893L223.147 437.543L221.201 438.146L219.23 438.7L217.234 439.206L215.213 439.662L213.167 440.068L211.097 440.423L209.002 440.725L206.855 440.926L207.145 445.074L209.355 444.97L211.58 444.86L213.791 444.694L215.989 444.472L218.172 444.195L220.34 443.862L222.494 443.474L224.631 443.031L226.751 442.533L228.855 441.98L230.941 441.372L233.009 440.709L235.058 439.992L237.088 439.221L239.097 438.396L241.086 437.517L243.053 436.585L244.997 435.601L246.919 434.564L248.817 433.475L250.691 432.334L252.54 431.142L254.364 429.9L256.161 428.607L257.931 427.265L259.674 425.874L261.389 424.435L263.075 422.947L264.733 421.413L266.36 419.832L267.957 418.204L269.524 416.532L271.059 414.815L272.563 413.053L274.035 411.248L275.474 409.401L276.88 407.511L278.253 405.579L279.592 403.607L280.897 401.594L282.168 399.541L283.404 397.45L284.605 395.32L285.77 393.152L286.899 390.946L287.992 388.704L289.049 386.426L289.934 384.269L290.918 382.244L291.987 380.015L292.968 377.768L293.862 375.505L294.667 373.229L295.385 370.942L296.014 368.649L296.556 366.352L297.01 364.053L297.375 361.755L297.653 359.462L297.843 357.176L297.945 354.901L297.96 352.639L297.886 350.393L297.725 348.166L297.475 345.962L297.138 343.785L296.712 341.636L296.199 339.52L295.598 337.44L294.909 335.4L294.133 333.403L293.27 331.454L292.32 329.557L291.284 327.715L290.164 325.933L288.959 324.216L287.672 322.566L286.305 320.99L284.859 319.49L283.337 318.07L281.741 316.735L280.076 315.488L278.342 314.331L276.545 313.268L274.687 312.301L272.772 311.43L270.803 310.659L268.782 309.987L266.713 309.414L264.597 308.941L262.437 308.569L260.234 308.296L257.989 308.123L255.702 308.049L253.373 308.075L252.341 310.735L256.344 311.279L259.017 309.168L261.597 307.029L264.085 304.865L266.482 302.678L268.788 300.473L271.002 298.251L273.127 296.016L275.161 293.77L277.106 291.517L278.963 289.259L280.731 286.999L282.411 284.74L284.003 282.484L285.509 280.235L286.928 277.995L288.261 275.767L289.508 273.553L290.671 271.356L291.749 269.178L292.742 267.022L293.651 264.89L294.477 262.785L295.218 260.707L295.876 258.659L296.449 256.644L296.937 254.662L297.34 252.715L297.656 250.804L297.882 248.931L298.017 247.097L298.056 245.303L297.995 243.551L297.827 241.844L297.546 240.185L297.14 238.581L296.601 237.041L295.918 235.579L295.082 234.216L294.089 232.976L292.945 231.891L291.666 230.994L290.283 230.308L288.837 229.849L287.369 229.611L285.916 229.575L284.5 229.709L283.12 229.992L202 230.2Z"/><path fill="#f5ebcd" stroke="none" d="M369.003 182.042L366.481 181.989L363.968 181.972L361.462 182.155L358.969 182.544L356.499 183.143L354.063 183.952L351.671 184.967L349.334 186.183L347.06 187.593L344.856 189.189L342.726 190.96L340.672 192.898L338.697 194.994L336.802 197.241L334.985 199.629L333.246 202.153L331.584 204.806L329.998 207.582L328.486 210.477L327.048 213.486L325.683 216.604L324.39 219.827L323.168 223.15L322.015 226.571L320.933 230.086L319.92 233.69L318.976 237.38L318.101 241.153L317.295 245.006L316.558 248.934L315.889 252.935L315.289 257.004L314.758 261.139L314.296 265.336L313.903 269.592L313.581 273.903L313.328 278.266L313.145 282.678L313.033 287.134L312.992 291.632L313.022 296.168L313.125 300.739L313.299 305.341L313.546 309.97L313.867 314.624L314.261 319.299L314.729 323.991L315.263 328.653L315.844 333.741L316.46 338.732L317.105 343.604L317.78 348.356L318.485 352.99L319.219 357.507L319.984 361.905L320.778 366.187L321.602 370.353L322.457 374.403L323.341 378.338L324.257 382.159L325.203 385.865L326.181 389.458L327.19 392.938L328.231 396.306L329.304 399.561L330.411 402.705L331.551 405.738L332.725 408.659L333.934 411.47L335.178 414.171L336.46 416.76L337.779 419.239L339.136 421.607L340.533 423.862L341.971 426.005L343.45 428.034L344.971 429.947L346.535 431.743L348.141 433.418L349.79 434.971L351.481 436.399L353.211 437.698L354.977 438.865L356.777 439.899L358.605 440.796L360.457 441.556L362.325 442.18L364.205 442.668L366.091 443.024L367.976 443.251L369.858 443.355L371.734 443.343L373.602 443.22L375.474 443.21L377.377 443.32L379.325 443.325L381.515 443.232L383.73 443L385.928 442.573L388.096 441.946L390.222 441.119L392.294 440.096L394.3 438.883L396.232 437.49L398.085 435.926L399.854 434.204L401.539 432.332L403.14 430.32L404.658 428.176L406.096 425.907L407.457 423.52L408.741 421.02L409.954 418.413L411.095 415.702L412.169 412.89L413.177 409.983L414.12 406.983L415.001 403.893L415.821 400.716L416.581 397.455L417.282 394.113L417.926 390.692L418.513 387.197L419.045 383.628L419.521 379.99L419.943 376.285L420.311 372.515L420.625 368.684L420.887 364.794L421.097 360.849L421.254 356.85L421.36 352.801L421.415 348.705L421.42 344.564L421.374 340.381L421.277 336.16L421.131 331.903L420.936 327.613L420.691 323.293L420.397 318.946L420.054 314.575L419.663 310.182L419.224 305.771L418.739 301.358L418.229 296.924L417.708 292.558L417.175 288.255L416.63 284.017L416.072 279.845L415.501 275.739L414.916 271.702L414.317 267.735L413.703 263.837L413.074 260.012L412.428 256.259L411.767 252.58L411.088 248.976L410.391 245.448L409.677 241.996L408.943 238.624L408.189 235.33L407.415 232.116L406.62 228.984L405.802 225.934L404.961 222.968L404.097 220.086L403.207 217.289L402.29 214.578L401.347 211.956L400.374 209.422L399.37 206.977L398.334 204.624L397.263 202.364L396.156 200.198L395.009 198.128L393.821 196.157L392.589 194.288L391.31 192.524L389.981 190.869L388.599 189.329L387.164 187.91L385.673 186.619L384.128 185.464L382.531 184.456L380.889 183.602L379.208 182.91L377.502 182.385L375.782 182.031L374.062 181.844L372.354 181.817L370.668 181.94L370.301 186.182L371.522 186.669L372.661 187.247L373.728 187.901L374.735 188.623L375.698 189.407L376.63 190.253L377.543 191.165L378.446 192.146L379.347 193.205L380.248 194.347L381.151 195.577L382.056 196.902L382.962 198.324L383.868 199.847L384.771 201.472L385.67 203.2L386.563 205.032L387.448 206.968L388.324 209.006L389.189 211.147L390.042 213.389L390.882 215.731L391.71 218.172L392.523 220.709L393.321 223.343L394.105 226.072L394.874 228.893L395.628 231.806L396.366 234.809L397.09 237.901L397.798 241.08L398.491 244.345L399.17 247.694L399.834 251.126L400.483 254.639L401.119 258.232L401.74 261.904L402.348 265.653L402.942 269.478L403.524 273.378L404.093 277.35L404.649 281.395L405.194 285.51L405.727 289.694L406.249 293.945L406.761 298.264L407.261 302.642L407.729 306.965L408.149 311.258L408.522 315.531L408.848 319.781L409.128 324.005L409.361 328.199L409.547 332.361L409.686 336.488L409.777 340.576L409.82 344.621L409.816 348.622L409.765 352.574L409.665 356.475L409.517 360.32L409.322 364.108L409.079 367.834L408.787 371.496L408.448 375.09L408.061 378.613L407.627 382.061L407.145 385.432L406.616 388.722L406.041 391.927L405.419 395.045L404.752 398.073L404.04 401.006L403.284 403.842L402.485 406.577L401.645 409.21L400.764 411.736L399.845 414.154L398.888 416.461L397.897 418.656L396.873 420.737L395.818 422.703L394.735 424.555L393.625 426.295L392.489 427.924L391.328 429.445L390.138 430.862L388.918 432.181L387.659 433.404L386.355 434.536L384.992 435.577L383.559 436.525L382.041 437.373L380.428 438.11L378.675 438.675L377.021 439.078L375.37 439.383L373.735 439.362L372.144 439.023L370.607 438.587L369.125 438.062L367.695 437.45L366.313 436.758L364.974 435.988L363.673 435.143L362.404 434.222L361.161 433.226L359.938 432.153L358.732 430.999L357.54 429.761L356.358 428.436L355.185 427.019L354.02 425.507L352.863 423.896L351.715 422.184L350.575 420.366L349.446 418.441L348.327 416.406L347.221 414.261L346.129 412.003L345.051 409.63L343.989 407.143L342.944 404.54L341.917 401.82L340.909 398.982L339.921 396.027L338.954 392.954L338.008 389.761L337.084 386.449L336.183 383.018L335.306 379.466L334.452 375.794L333.622 372.002L332.817 368.088L332.037 364.053L331.283 359.897L330.554 355.618L329.852 351.218L329.176 346.695L328.527 342.049L327.904 337.279L327.309 332.386L326.737 327.347L326.219 322.771L325.78 318.252L325.41 313.752L325.11 309.273L324.879 304.819L324.715 300.394L324.62 296.002L324.591 291.646L324.63 287.33L324.734 283.058L324.904 278.833L325.138 274.659L325.437 270.541L325.799 266.481L326.224 262.483L326.711 258.552L327.26 254.69L327.868 250.902L328.536 247.191L329.263 243.562L330.048 240.017L330.888 236.561L331.785 233.197L332.735 229.929L333.737 226.76L334.791 223.693L335.894 220.733L337.045 217.882L338.242 215.143L339.483 212.519L340.765 210.013L342.088 207.625L343.447 205.358L344.843 203.213L346.272 201.191L347.734 199.289L349.228 197.509L350.755 195.847L352.316 194.302L353.916 192.872L355.559 191.556L357.254 190.353L359.009 189.265L360.833 188.296L362.738 187.453L364.731 186.748L366.819 186.192L368.997 185.958Z"/>
</g>
<path fill="#f5ebcd" d="M167 432a5.5 5.5 0 1 1-11 0 5.5 5.5 0 0 1 11 0Z"/>
<defs>
<clipPath id="weave-one"><path d="M96 240H122V284H96Z"/></clipPath>
<clipPath id="weave-two"><path d="M277 236H315V282H277Z"/></clipPath>
<clipPath id="weave-nine"><path d="M315 270H349V307H315Z"/></clipPath>
</defs>
<g fill="none" stroke-linecap="butt" stroke-linejoin="miter">
<g clip-path="url(#weave-one)"><path stroke="#102b26" stroke-width="16" d="M75 115C92 114 102 102 110 90V333C110 379 190 363 174 331"/><path fill="#d4b97f" stroke="none" d="M75.152 117.085L76.24 117.062L77.349 117.062L78.447 117.033L79.533 116.975L80.609 116.886L81.673 116.769L82.726 116.621L83.768 116.444L84.798 116.238L85.817 116.003L86.822 115.74L87.816 115.448L88.796 115.128L89.763 114.781L90.716 114.407L91.655 114.008L92.579 113.583L93.489 113.134L94.384 112.661L95.264 112.166L96.129 111.649L96.978 111.111L97.812 110.554L98.631 109.977L99.435 109.383L100.223 108.772L100.996 108.144L101.755 107.502L102.499 106.846L103.228 106.176L103.944 105.495L104.646 104.802L105.334 104.099L106.009 103.386L106.671 102.664L107.32 101.935L107.958 101.198L108.583 100.456L109.197 99.707L109.8 98.954L110.393 98.197L110.974 97.437L111.546 96.674L112.108 95.909L112.661 95.143L113.205 94.376L113.74 93.61L109.228 91.426L104.203 333.106L104.338 336.229L104.728 339.314L105.376 342.247L106.274 345.014L107.412 347.599L108.772 349.989L110.331 352.17L112.064 354.137L113.943 355.887L115.94 357.426L118.032 358.762L120.199 359.907L122.424 360.874L124.695 361.677L127.001 362.326L129.334 362.833L131.686 363.206L134.053 363.452L136.426 363.578L138.8 363.588L141.168 363.521L143.535 363.532L145.909 363.586L148.287 363.527L150.659 363.358L153.016 363.081L155.349 362.698L157.652 362.212L159.915 361.623L162.131 360.933L164.294 360.141L166.396 359.245L168.43 358.243L170.389 357.13L172.263 355.899L174.042 354.542L175.71 353.047L177.248 351.402L178.627 349.599L179.814 347.631L180.77 345.504L181.454 343.234L181.831 340.852L181.877 338.398L181.586 335.914L180.964 333.439L180.031 330.999L178.99 328.79L169.01 333.21L169.722 334.959L170.061 336.387L170.25 337.688L170.327 338.882L170.317 340.002L170.233 341.086L170.071 342.169L169.815 343.276L169.443 344.42L168.935 345.599L168.276 346.805L167.458 348.021L166.479 349.231L165.345 350.42L164.062 351.574L162.641 352.681L161.094 353.731L159.431 354.716L157.667 355.629L155.811 356.467L153.877 357.223L151.876 357.895L149.817 358.479L147.713 358.973L145.573 359.374L143.407 359.68L141.23 359.73L139.07 359.483L136.951 359.091L134.885 358.587L132.884 357.969L130.963 357.241L129.132 356.403L127.405 355.46L125.791 354.417L124.301 353.28L122.94 352.059L121.711 350.76L120.612 349.391L119.64 347.956L118.785 346.453L118.041 344.878L117.399 343.218L116.856 341.456L116.413 339.573L116.08 337.547L115.868 335.36L115.797 332.894L110.772 88.574L105.255 87.89L104.774 88.622L104.29 89.352L103.803 90.079L103.312 90.802L102.819 91.521L102.321 92.235L101.82 92.944L101.315 93.648L100.806 94.346L100.292 95.037L99.774 95.721L99.25 96.399L98.722 97.068L98.189 97.73L97.651 98.383L97.107 99.028L96.557 99.663L96.001 100.29L95.438 100.906L94.869 101.513L94.293 102.11L93.71 102.697L93.119 103.273L92.52 103.838L91.912 104.392L91.295 104.935L90.668 105.467L90.03 105.987L89.382 106.495L88.722 106.991L88.049 107.474L87.363 107.944L86.663 108.4L85.947 108.843L85.216 109.271L84.467 109.684L83.701 110.081L82.916 110.461L82.111 110.824L81.286 111.168L80.44 111.493L79.572 111.797L78.681 112.08L77.767 112.339L76.829 112.575L75.867 112.785L74.848 112.915Z"/></g>
<g clip-path="url(#weave-two)"><path stroke="#102b26" stroke-width="16" d="M179 111C180 84 233 79 250 100 272 126 240 168 212 208L185 248H255C314 248 335 304 290 350 269 373 222 373 220 347 219 333 236 326 252 327"/><path fill="#d4b97f" stroke="none" d="M184.77 111.45L184.852 110.027L184.982 108.89L185.174 107.787L185.43 106.706L185.756 105.636L186.16 104.569L186.649 103.502L187.233 102.438L187.917 101.378L188.703 100.33L189.594 99.299L190.589 98.293L191.684 97.318L192.875 96.379L194.157 95.483L195.525 94.633L196.972 93.832L198.492 93.084L200.079 92.391L201.726 91.754L203.427 91.175L205.177 90.654L206.969 90.193L208.797 89.793L210.656 89.453L212.541 89.173L214.446 88.955L216.364 88.866L218.284 88.966L220.193 89.189L222.085 89.473L223.955 89.821L225.797 90.23L227.605 90.703L229.374 91.237L231.098 91.833L232.771 92.49L234.386 93.207L235.938 93.982L237.421 94.814L238.828 95.699L240.154 96.636L241.394 97.619L242.543 98.646L243.598 99.71L244.557 100.808L245.418 101.933L246.245 103.112L247.281 104.627L248.137 106.124L248.875 107.622L249.506 109.124L250.04 110.633L250.485 112.157L250.848 113.703L251.131 115.277L251.337 116.887L251.467 118.538L251.519 120.235L251.493 121.979L251.386 123.774L251.197 125.618L250.926 127.512L250.572 129.454L250.134 131.442L249.613 133.474L249.01 135.548L248.328 137.661L247.566 139.811L246.728 141.995L245.817 144.211L244.834 146.457L243.782 148.731L242.664 151.031L241.484 153.354L240.244 155.7L238.948 158.066L237.598 160.451L236.199 162.853L234.752 165.271L233.261 167.703L231.73 170.148L230.162 172.606L228.559 175.073L226.926 177.55L225.265 180.035L223.58 182.527L221.873 185.025L220.149 187.527L218.41 190.033L216.659 192.542L214.899 195.052L213.135 197.563L211.368 200.073L209.602 202.582L207.802 205.112L182.88 247.469L254.981 249.84L258.557 250.031L262 250.405L265.325 250.916L268.529 251.56L271.61 252.331L274.566 253.223L277.395 254.231L280.097 255.348L282.67 256.569L285.114 257.887L287.427 259.295L289.612 260.789L291.667 262.363L293.594 264.009L295.396 265.724L297.072 267.503L298.626 269.34L300.06 271.233L301.376 273.177L302.575 275.171L303.662 277.213L304.636 279.3L305.499 281.432L306.253 283.609L306.898 285.829L307.433 288.093L307.859 290.401L308.173 292.752L308.375 295.148L308.462 297.586L308.431 300.067L308.28 302.59L308.005 305.153L307.603 307.756L307.071 310.396L306.404 313.071L305.6 315.779L304.654 318.516L303.562 321.28L302.323 324.067L300.931 326.874L299.383 329.697L297.678 332.532L295.81 335.375L293.778 338.222L291.579 341.069L289.21 343.911L286.593 346.763L285.382 348.137L284.207 349.437L282.964 350.696L281.659 351.911L280.292 353.081L278.868 354.205L277.39 355.279L275.862 356.304L274.288 357.277L272.671 358.197L271.017 359.063L269.329 359.875L267.611 360.631L265.868 361.332L264.103 361.975L262.321 362.562L260.526 363.092L258.722 363.563L256.912 363.977L255.101 364.334L253.292 364.632L251.49 364.872L249.697 365.022L247.925 364.973L246.187 364.754L244.491 364.471L242.841 364.123L241.244 363.711L239.705 363.236L238.229 362.699L236.823 362.103L235.492 361.449L234.242 360.741L233.079 359.982L232.006 359.179L231.027 358.336L230.146 357.46L229.362 356.557L228.674 355.636L228.077 354.7L227.567 353.755L227.134 352.802L226.769 351.838L226.465 350.859L226.214 349.853L226.013 348.81L225.862 347.715L225.763 346.539L225.756 346.026L225.758 345.488L225.776 344.973L225.808 344.475L225.854 343.99L225.913 343.514L225.986 343.042L226.075 342.57L226.182 342.096L226.31 341.617L226.462 341.131L226.64 340.639L226.847 340.141L227.087 339.636L227.359 339.128L227.667 338.616L228.011 338.103L228.391 337.59L228.808 337.081L229.262 336.576L229.751 336.079L230.276 335.589L230.835 335.11L231.427 334.641L232.05 334.186L232.704 333.744L233.387 333.317L234.097 332.906L234.833 332.51L235.594 332.132L236.378 331.771L237.183 331.428L238.008 331.104L238.852 330.798L239.714 330.51L240.591 330.242L241.483 329.993L242.388 329.763L243.305 329.553L244.233 329.363L245.171 329.192L246.117 329.04L247.07 328.909L248.029 328.797L248.992 328.747L249.956 328.8L250.917 328.912L251.896 329.005L252.104 324.995L251.081 324.983L250.036 325.034L248.993 325.065L247.951 325.035L246.908 324.985L245.864 324.956L244.819 324.948L243.776 324.961L242.734 324.996L241.695 325.052L240.659 325.129L239.628 325.227L238.601 325.346L237.58 325.486L236.565 325.648L235.558 325.831L234.558 326.036L233.566 326.262L232.583 326.511L231.61 326.783L230.647 327.078L229.694 327.397L228.753 327.74L227.823 328.109L226.906 328.504L226.003 328.926L225.114 329.378L224.24 329.86L223.382 330.374L222.543 330.921L221.723 331.505L220.926 332.125L220.153 332.785L219.408 333.486L218.694 334.23L218.016 335.017L217.378 335.848L216.784 336.724L216.239 337.644L215.749 338.606L215.318 339.608L214.95 340.646L214.65 341.718L214.42 342.818L214.262 343.941L214.177 345.085L214.166 346.243L214.237 347.461L214.504 349.467L214.946 351.42L215.556 353.289L216.328 355.062L217.25 356.726L218.308 358.272L219.485 359.696L220.765 360.994L222.132 362.17L223.573 363.226L225.075 364.17L226.629 365.008L228.228 365.748L229.867 366.396L231.541 366.958L233.248 367.44L234.986 367.846L236.751 368.18L238.543 368.443L240.359 368.64L242.197 368.77L244.056 368.836L245.933 368.838L247.825 368.777L249.732 368.758L251.661 368.811L253.614 368.827L255.588 368.774L257.577 368.653L259.579 368.464L261.59 368.207L263.605 367.882L265.621 367.49L267.635 367.03L269.642 366.502L271.64 365.906L273.624 365.242L275.592 364.509L277.539 363.707L279.462 362.835L281.358 361.892L283.222 360.877L285.051 359.789L286.84 358.627L288.586 357.389L290.283 356.073L291.927 354.678L293.407 353.237L296.243 350.315L298.987 347.337L301.563 344.325L303.972 341.284L306.214 338.216L308.288 335.123L310.196 332.009L311.937 328.877L313.51 325.731L314.915 322.573L316.152 319.409L317.221 316.241L318.12 313.075L318.849 309.915L319.407 306.766L319.794 303.632L320.01 300.521L320.054 297.438L319.926 294.388L319.627 291.379L319.159 288.418L318.521 285.512L317.716 282.667L316.747 279.891L315.616 277.191L314.327 274.574L312.883 272.046L311.29 269.613L309.552 267.282L307.674 265.056L305.662 262.942L303.52 260.942L301.255 259.06L298.87 257.299L296.372 255.661L293.763 254.148L291.05 252.762L288.234 251.503L285.32 250.374L282.31 249.374L279.207 248.505L276.012 247.769L272.728 247.165L269.356 246.697L265.896 246.364L262.35 246.169L258.718 246.114L255.019 246.16L187.12 248.531L216.198 210.888L217.907 208.413L219.665 205.909L221.431 203.399L223.2 200.885L224.97 198.369L226.739 195.85L228.502 193.329L230.256 190.809L231.999 188.289L233.728 185.77L235.438 183.253L237.128 180.739L238.794 178.229L240.433 175.724L242.043 173.224L243.619 170.729L245.159 168.241L246.659 165.76L248.118 163.287L249.531 160.821L250.896 158.363L252.209 155.915L253.467 153.474L254.666 151.043L255.805 148.62L256.878 146.206L257.882 143.8L258.814 141.401L259.668 139.011L260.442 136.627L261.129 134.25L261.725 131.879L262.223 129.514L262.618 127.155L262.903 124.803L263.07 122.458L263.111 120.124L263.02 117.803L262.787 115.5L262.406 113.223L261.872 110.977L261.179 108.772L260.325 106.618L259.311 104.522L258.138 102.494L256.809 100.54L255.33 98.664L253.755 96.888L252.365 95.509L250.831 94.212L249.226 93.022L247.559 91.933L245.837 90.94L244.065 90.036L242.249 89.219L240.394 88.483L238.503 87.825L236.58 87.242L234.629 86.731L232.652 86.292L230.653 85.922L228.637 85.62L226.606 85.385L224.564 85.216L222.515 85.114L220.463 85.077L218.413 85.105L216.367 85.139L214.324 85.109L212.28 85.077L210.238 85.11L208.203 85.207L206.179 85.369L204.169 85.595L202.178 85.886L200.209 86.242L198.266 86.663L196.352 87.15L194.47 87.705L192.624 88.33L190.816 89.027L189.05 89.798L187.33 90.648L185.661 91.582L184.048 92.605L182.497 93.722L181.017 94.94L179.619 96.266L178.315 97.705L177.122 99.259L176.056 100.93L175.135 102.715L174.377 104.605L173.797 106.59L173.407 108.655L173.23 110.55Z"/></g>
<g clip-path="url(#weave-nine)"><path stroke="#102b26" stroke-width="16" d="M373 103C346 86 303 86 296 109 286 135 308 154 335 144 359 135 369 116 373 103ZM373 103C391 196 348 305 279 324 248 337 208 319 224 287"/><path fill="#d4b97f" stroke="none" d="M376.688 102.185L373.238 98.66L371.348 97.697L369.429 96.784L367.483 95.922L365.513 95.11L363.521 94.348L361.51 93.635L359.482 92.973L357.44 92.361L355.387 91.799L353.324 91.288L351.255 90.827L349.182 90.418L347.108 90.059L345.036 89.753L342.968 89.499L340.907 89.297L338.856 89.149L336.817 89.054L334.795 89.013L332.791 89.027L330.808 89.063L328.845 89.044L326.899 89.003L324.971 89.011L323.062 89.071L321.174 89.182L319.31 89.345L317.47 89.562L315.656 89.833L313.87 90.16L312.113 90.544L310.387 90.989L308.691 91.495L307.03 92.067L305.403 92.709L303.815 93.424L302.267 94.217L300.765 95.094L299.314 96.06L297.92 97.12L296.592 98.279L295.341 99.54L294.177 100.905L293.111 102.375L292.157 103.945L291.324 105.61L290.745 107.148L290.122 108.829L289.5 110.638L288.971 112.442L288.536 114.238L288.195 116.024L287.95 117.797L287.799 119.555L287.745 121.294L287.786 123.011L287.922 124.701L288.153 126.361L288.478 127.987L288.894 129.573L289.401 131.116L289.995 132.61L290.674 134.053L291.434 135.44L292.271 136.767L293.181 138.032L294.16 139.23L295.204 140.361L296.307 141.422L297.465 142.412L298.674 143.33L299.93 144.174L301.227 144.946L302.563 145.644L303.933 146.27L305.334 146.823L306.764 147.304L308.218 147.714L309.696 148.054L311.193 148.325L312.709 148.526L314.242 148.66L315.789 148.727L317.35 148.726L318.924 148.66L320.509 148.597L322.118 148.637L323.762 148.706L325.441 148.701L327.152 148.618L328.893 148.457L330.662 148.215L332.456 147.891L334.272 147.483L336.102 146.986L337.709 146.478L339.26 145.927L340.778 145.348L342.264 144.742L343.717 144.108L345.139 143.449L346.528 142.764L347.885 142.054L349.21 141.32L350.504 140.563L351.765 139.784L352.996 138.984L354.194 138.163L355.362 137.323L356.498 136.465L357.602 135.589L358.676 134.696L359.719 133.788L360.732 132.866L361.714 131.93L362.666 130.982L363.588 130.023L364.481 129.054L365.344 128.075L366.178 127.089L366.984 126.096L367.762 125.098L368.511 124.095L369.234 123.088L369.929 122.079L370.598 121.068L371.24 120.057L371.857 119.047L372.449 118.038L373.016 117.032L373.559 116.03L374.079 115.033L374.575 114.041L375.048 113.056L375.5 112.079L375.929 111.111L376.338 110.152L376.726 109.204L377.093 108.267L377.442 107.343L377.771 106.432L378.081 105.535L367.403 102.105L367.165 102.878L366.914 103.665L366.647 104.464L366.366 105.276L366.068 106.098L365.755 106.93L365.426 107.773L365.081 108.623L364.718 109.482L364.338 110.348L363.941 111.22L363.525 112.098L363.091 112.981L362.639 113.867L362.167 114.758L361.676 115.651L361.165 116.546L360.633 117.443L360.081 118.341L359.508 119.238L358.913 120.135L358.296 121.031L357.656 121.925L356.993 122.816L356.306 123.704L355.596 124.588L354.86 125.468L354.099 126.343L353.312 127.212L352.498 128.074L351.657 128.93L350.788 129.777L349.89 130.616L348.962 131.446L348.004 132.266L347.016 133.075L345.995 133.872L344.942 134.657L343.856 135.428L342.735 136.185L341.58 136.926L340.389 137.652L339.162 138.36L337.898 139.05L336.595 139.721L335.255 140.371L333.898 141.014L332.366 141.692L330.85 142.31L329.344 142.866L327.847 143.36L326.36 143.793L324.884 144.166L323.419 144.48L321.965 144.734L320.526 144.826L319.117 144.686L317.75 144.415L316.429 144.086L315.156 143.701L313.933 143.263L312.759 142.776L311.638 142.242L310.569 141.665L309.553 141.048L308.59 140.393L307.682 139.705L306.827 138.986L306.024 138.239L305.274 137.466L304.576 136.67L303.927 135.854L303.327 135.018L302.774 134.165L302.267 133.295L301.803 132.409L301.381 131.506L301.001 130.587L300.659 129.651L300.357 128.695L300.092 127.72L299.866 126.722L299.678 125.701L299.53 124.653L299.423 123.578L299.358 122.472L299.339 121.335L299.366 120.165L299.445 118.96L299.577 117.721L299.766 116.445L300.016 115.133L300.33 113.785L300.711 112.402L301.255 110.852L301.644 109.575L301.961 108.544L302.332 107.537L302.763 106.546L303.26 105.569L303.83 104.604L304.476 103.653L305.205 102.718L306.018 101.804L306.917 100.914L307.902 100.054L308.972 99.229L310.123 98.442L311.353 97.697L312.658 96.997L314.035 96.345L315.478 95.742L316.984 95.19L318.549 94.691L320.167 94.245L321.835 93.852L323.55 93.514L325.306 93.229L327.101 92.997L328.93 92.82L330.789 92.769L332.668 92.876L334.562 93.063L336.466 93.297L338.379 93.578L340.297 93.905L342.217 94.279L344.138 94.699L346.055 95.165L347.967 95.678L349.87 96.235L351.761 96.838L353.637 97.487L355.495 98.179L357.332 98.916L359.146 99.696L360.932 100.519L362.688 101.385L364.41 102.293L366.096 103.242L367.743 104.231L369.346 105.259L369.312 103.815ZM367.353 104.013L368.377 109.77L369.227 115.488L369.929 121.237L370.485 127.013L370.897 132.808L371.166 138.619L371.293 144.438L371.28 150.26L371.13 156.08L370.843 161.891L370.422 167.689L369.868 173.467L369.183 179.219L368.369 184.939L367.427 190.622L366.36 196.263L365.17 201.854L363.858 207.391L362.427 212.867L360.879 218.278L359.215 223.616L357.437 228.877L355.549 234.055L353.551 239.144L351.447 244.138L349.238 249.032L346.927 253.821L344.515 258.499L342.006 263.06L339.401 267.5L336.703 271.814L333.914 275.995L331.035 280.04L328.07 283.943L325.021 287.699L321.889 291.305L318.675 294.756L315.383 298.047L312.013 301.174L308.566 304.133L305.043 306.921L301.444 309.532L297.77 311.963L294.02 314.209L290.193 316.266L286.288 318.128L282.304 319.789L277.965 321.06L275.929 321.775L274.124 322.566L272.29 323.285L270.433 323.933L268.556 324.51L266.661 325.016L264.754 325.452L262.837 325.818L260.915 326.114L258.991 326.34L257.071 326.387L255.17 326.223L253.298 325.96L251.459 325.631L249.658 325.238L247.897 324.782L246.181 324.264L244.515 323.687L242.902 323.051L241.347 322.36L239.853 321.615L238.425 320.819L237.067 319.974L235.783 319.085L234.577 318.154L233.451 317.186L232.408 316.184L231.451 315.154L230.581 314.1L229.797 313.027L229.099 311.939L228.485 310.839L227.951 309.73L227.494 308.614L227.109 307.489L226.792 306.352L226.539 305.199L226.348 304.023L226.219 302.816L226.155 301.569L226.158 300.273L226.237 298.922L226.4 297.508L226.656 296.027L227.015 294.477L227.487 292.855L228.082 291.163L228.911 289.299L219.089 284.701L218.063 286.8L217.087 288.997L216.266 291.187L215.602 293.37L215.099 295.542L214.759 297.699L214.584 299.835L214.577 301.94L214.736 304.007L215.06 306.024L215.542 307.98L216.177 309.867L216.954 311.674L217.864 313.397L218.894 315.029L220.034 316.569L221.272 318.015L222.598 319.368L224.002 320.63L225.478 321.803L227.018 322.89L228.616 323.895L230.267 324.819L231.967 325.665L233.712 326.436L235.498 327.132L237.322 327.756L239.182 328.308L241.075 328.789L242.997 329.2L244.945 329.541L246.918 329.811L248.911 330.01L250.923 330.139L252.949 330.197L254.986 330.183L257.033 330.129L259.091 330.144L261.169 330.196L263.265 330.173L265.376 330.072L267.499 329.894L269.63 329.635L271.767 329.295L273.905 328.872L276.042 328.364L278.173 327.769L280.035 326.94L284.253 325.603L288.686 324.2L293.055 322.552L297.356 320.664L301.583 318.542L305.731 316.195L309.797 313.627L313.777 310.848L317.666 307.864L321.463 304.683L325.164 301.311L328.768 297.757L332.271 294.028L335.672 290.13L338.969 286.071L342.161 281.857L345.245 277.495L348.22 272.992L351.085 268.354L353.838 263.587L356.477 258.698L359.001 253.692L361.409 248.576L363.699 243.356L365.868 238.038L367.917 232.628L369.842 227.131L371.643 221.553L373.318 215.901L374.864 210.179L376.281 204.395L377.566 198.552L378.717 192.658L379.733 186.717L380.611 180.737L381.351 174.721L381.949 168.676L382.404 162.608L382.714 156.523L382.877 150.425L382.89 144.321L382.752 138.217L382.461 132.119L382.013 126.031L381.408 119.961L380.642 113.914L379.714 107.895L378.647 101.987Z"/></g>
</g>
</svg>